<svg xmlns="http://www.w3.org/2000/svg" xmlns:xlink="http://www.w3.org/1999/xlink" width="672.43" height="613.102" viewBox="0 0 672.43 613.102">
  <defs>
    <linearGradient id="linear-gradient" x1="-0.028" y1="0.32" x2="1" y2="0.676" gradientUnits="objectBoundingBox">
      <stop offset="0" stop-color="#2298bd"/>
      <stop offset="1" stop-color="#0ed7b5"/>
    </linearGradient>
  </defs>
  <g id="Herramientas" transform="translate(-1088.925 -282)">
    <g id="html-5_2_" data-name="html-5 (2)" transform="translate(1093.073 282)">
      <path id="Path_16" data-name="Path 16" d="M137.952,70.766,125.425,211.1l-56.31,15.611L12.959,211.124.445,70.766Z" transform="translate(-0.445 -32.622)" fill="#e44d26"/>
      <path id="Path_17" data-name="Path 17" d="M128,224.6l45.5-12.614L184.207,92.057H128V224.6Z" transform="translate(-59.247 -42.438)" fill="#f16529"/>
      <path id="Path_18" data-name="Path 18" d="M66.73,141.209H91.082V124H47.917l.412,4.618,4.231,47.438H91.082V158.837H68.3L66.73,141.209Z" transform="translate(-22.329 -57.161)" fill="#ebebeb"/>
      <path id="Path_19" data-name="Path 19" d="M75.239,236.542H57.958l2.412,27.029,35.262,9.789.079-.022v-17.91l-.075.02-19.172-5.177-1.226-13.729Z" transform="translate(-26.958 -109.044)" fill="#ebebeb"/>
      <path id="Path_20" data-name="Path 20" d="M24.181,0h8.748V8.643h8V0H49.68V26.173H40.932V17.409h-8v8.764H24.181V0Z" transform="translate(-11.387)" fill="#fff"/>
      <path id="Path_21" data-name="Path 21" d="M86.244,8.679h-7.7V0H102.7V8.679H94.993V26.173H86.245V8.679Z" transform="translate(-36.447)" fill="#fff"/>
      <path id="Path_22" data-name="Path 22" d="M130.469,0h9.122L145.2,9.2,150.808,0h9.125V26.173h-8.712V13.2L145.2,22.507h-.15L139.029,13.2V26.173h-8.56V0Z" transform="translate(-60.385)" fill="#fff"/>
      <path id="Path_23" data-name="Path 23" d="M193.21,0h8.751V17.522h12.3v8.651H193.21V0Z" transform="translate(-89.308)" fill="#fff"/>
      <path id="Path_24" data-name="Path 24" d="M127.89,205.85h21.2l-2,22.326-19.2,5.182v17.909l35.29-9.78.259-2.908,4.045-45.32.42-4.623H127.89V205.85Z" transform="translate(-59.196 -86.96)" fill="#fff"/>
      <path id="Path_25" data-name="Path 25" d="M127.89,141.167v.042h41.581l.345-3.869.785-8.727.411-4.618H127.89v17.172Z" transform="translate(-59.196 -57.161)" fill="#fff"/>
    </g>
    <g id="javascript_2_" data-name="javascript (2)" transform="translate(1349.897 313.012)">
      <path id="Path_26" data-name="Path 26" d="M0,0H147.207V147.207H0Z" fill="#f7df1e"/>
      <path id="Path_27" data-name="Path 27" d="M67.312,172.963l11.265-6.817c2.173,3.853,4.15,7.114,8.892,7.114,4.546,0,7.411-1.778,7.411-8.694V117.529h13.834V164.76c0,14.328-8.4,20.85-20.653,20.85-11.066,0-17.49-5.731-20.751-12.648" transform="translate(-28.606 -49.947)"/>
      <path id="Path_28" data-name="Path 28" d="M152.381,170.9l11.264-6.521c2.965,4.842,6.819,8.4,13.637,8.4,5.732,0,9.387-2.866,9.387-6.819,0-4.743-3.755-6.423-10.079-9.189l-3.458-1.483c-9.981-4.248-16.6-9.585-16.6-20.849,0-10.376,7.905-18.281,20.258-18.281,8.794,0,15.119,3.064,19.664,11.068l-10.771,6.917c-2.372-4.249-4.94-5.929-8.893-5.929-4.052,0-6.621,2.569-6.621,5.929,0,4.15,2.569,5.83,8.5,8.4l3.458,1.482c11.759,5.04,18.38,10.177,18.38,21.738,0,12.452-9.782,19.269-22.925,19.269-12.846,0-21.146-6.126-25.2-14.131" transform="translate(-64.758 -49.362)"/>
    </g>
    <g id="css-3_2_" data-name="css-3 (2)" transform="translate(1616.421 282)">
      <path id="Path_29" data-name="Path 29" d="M69.114,226.713,12.959,211.124.445,70.766H137.952L125.425,211.1l-56.31,15.611Z" transform="translate(-0.445 -32.622)" fill="#264de4"/>
      <path id="Path_30" data-name="Path 30" d="M173.5,211.981,184.207,92.057H128V224.6l45.5-12.614Z" transform="translate(-59.247 -42.438)" fill="#2965f1"/>
      <path id="Path_31" data-name="Path 31" d="M53.669,188.636l1.543,17.214H93.734V188.636Z" transform="translate(-24.981 -86.96)" fill="#ebebeb"/>
      <path id="Path_32" data-name="Path 32" d="M47.917,124l1.565,17.214h41.6V124Z" transform="translate(-22.329 -57.161)" fill="#ebebeb"/>
      <path id="Path_33" data-name="Path 33" d="M95.711,255.428l-.075.02-19.172-5.177-1.226-13.729H57.958l2.412,27.029,35.262,9.789.079-.022v-17.91Z" transform="translate(-26.958 -109.044)" fill="#ebebeb"/>
      <path id="Path_34" data-name="Path 34" d="M60.484,0h20.85V8.719H69.2v8.719H81.333v8.719H60.484V0Z" transform="translate(-28.122)" fill="#fff"/>
      <path id="Path_35" data-name="Path 35" d="M106.9,0H127.75V7.582H115.62V9.1h12.13V26.536H106.9V18.575h12.131V17.059H106.9V0Z" transform="translate(-49.52)" fill="#fff"/>
      <path id="Path_36" data-name="Path 36" d="M153.319,0h20.849V7.582h-12.13V9.1h12.13V26.536H153.319V18.575h12.13V17.059h-12.13V0Z" transform="translate(-70.919)" fill="#fff"/>
      <path id="Path_37" data-name="Path 37" d="M167.9,158.837,171.012,124H127.89v17.214h24.256l-1.566,17.628H127.89v17.214h21.2l-2,22.326-19.2,5.182v17.909l35.29-9.78.259-2.908,4.045-45.32.42-4.623Z" transform="translate(-59.196 -57.161)" fill="#fff"/>
    </g>
    <g id="adobe-xd_1_" data-name="adobe-xd (1)" transform="translate(1093.073 762.073)">
      <path id="Path_39" data-name="Path 39" d="M10,10H134.778V131.375H10Z" transform="translate(-4.328 -4.328)" fill="#2e001e"/>
      <path id="Path_40" data-name="Path 40" d="M0,0V132.718H136.121V0ZM5.672,5.672H130.45V127.047H5.672Z" fill="#ff2bc2"/>
      <path id="Path_41" data-name="Path 41" d="M118.425,79.775a7.788,7.788,0,0,0-3.29-.567c-7.146,0-11.911,5.5-11.911,14.633,0,10.436,4.878,14.633,11.23,14.633a10.7,10.7,0,0,0,3.913-.624V79.775ZM93.015,94.295c0-13.215,8.508-23.538,22.46-23.538a25.153,25.153,0,0,1,2.949.113V56.124a.568.568,0,0,1,.567-.567h9.131c.454,0,.567.17.567.454v51.84a40.4,40.4,0,0,0,.284,5.558c0,.4,0,.454-.34.624a33.785,33.785,0,0,1-14.52,3.29C101.807,117.322,93.015,109.722,93.015,94.295ZM73.675,85.106l15.881,30.8c.284.454.113.907-.34.907H79.347a1.113,1.113,0,0,1-1.191-.737q-5.445-11.23-11.117-23.311h-.113c-3.4,7.6-7.146,15.881-10.776,23.368a1.089,1.089,0,0,1-1.021.624H45.713c-.567,0-.624-.454-.34-.794l15.541-29.89-15.03-29.72a.5.5,0,0,1,.4-.851h9.755c.567,0,.851.113,1.021.624C60.63,63.667,64.26,71.1,67.663,78.7h.113c3.29-7.487,6.92-15.03,10.379-22.46.284-.454.454-.737,1.021-.737h9.131c.454,0,.624.34.34.851L73.675,85.106Z" transform="translate(-19.567 -24.022)" fill="#ff2bc2"/>
    </g>
    <line id="Line_7" data-name="Line 7" x2="572.355" transform="translate(1137.322 706.516)" fill="none" stroke="#f5d10d" stroke-width="4"/>
    <g id="adobe-photoshop-2" transform="translate(1355.342 761.693)">
      <g id="Path_42" data-name="Path 42" transform="translate(0 0)" fill="#001e36">
        <path d="M 112.1766967773438 130.4080657958984 L 24.13929748535156 130.4080657958984 C 21.21235656738281 130.4080657958984 18.37611770629883 129.8368682861328 15.70933723449707 128.7103576660156 C 13.13251686096191 127.6218566894531 10.81867694854736 126.062629699707 8.832056999206543 124.0760116577148 C 6.845437049865723 122.0893936157227 5.286217212677002 119.7755508422852 4.197717189788818 117.19873046875 C 3.071197032928467 114.5319519042969 2.499997138977051 111.6957092285156 2.499997138977051 108.7687759399414 L 2.499997138977051 24.1392936706543 C 2.499997138977051 21.21235275268555 3.071197032928467 18.37611198425293 4.197717189788818 15.70933246612549 C 5.286217212677002 13.13251304626465 6.845437049865723 10.8186731338501 8.832056999206543 8.832053184509277 C 10.81867694854736 6.845432758331299 13.13251686096191 5.286212921142578 15.70933723449707 4.197712898254395 C 18.37611770629883 3.071192979812622 21.21235656738281 2.499992847442627 24.13929748535156 2.499992847442627 L 112.1766967773438 2.499992847442627 C 115.1036376953125 2.499992847442627 117.9398803710938 3.071192979812622 120.6066589355469 4.197712898254395 C 123.183479309082 5.286212921142578 125.497314453125 6.845432758331299 127.4839401245117 8.832053184509277 C 129.4705505371094 10.8186731338501 131.0297698974609 13.13251304626465 132.1182708740234 15.70933246612549 C 133.2447967529297 18.37611198425293 133.8159942626953 21.21235275268555 133.8159942626953 24.1392936706543 L 133.8159942626953 108.7687759399414 C 133.8159942626953 111.6957092285156 133.2447967529297 114.5319519042969 132.1182708740234 117.19873046875 C 131.0297698974609 119.7755508422852 129.4705505371094 122.0893936157227 127.4839401245117 124.0760116577148 C 125.497314453125 126.062629699707 123.183479309082 127.6218566894531 120.6066589355469 128.7103576660156 C 117.9398803710938 129.8368682861328 115.1036376953125 130.4080657958984 112.1766967773438 130.4080657958984 Z" stroke="none"/>
        <path d="M 24.1392822265625 4.999992370605469 C 19.01932525634766 4.999992370605469 14.21092987060547 6.98870849609375 10.59982299804688 10.59981536865234 C 6.98870849609375 14.21092224121094 5 19.01931762695312 5 24.13927459716797 L 5 108.7687683105469 C 5 113.8887329101562 6.98870849609375 118.6971435546875 10.59982299804688 122.3082275390625 C 14.21090698242188 125.9193344116211 19.01932525634766 127.9080581665039 24.1392822265625 127.9080581665039 L 112.1766967773438 127.9080581665039 C 117.2966461181641 127.9080581665039 122.1050643920898 125.9193344116211 125.7161712646484 122.3082275390625 C 129.3272857666016 118.6971206665039 131.3159942626953 113.8887329101562 131.3159942626953 108.7687683105469 L 131.3159942626953 24.13927459716797 C 131.3159942626953 19.01934051513672 129.3272857666016 14.21092224121094 125.7161712646484 10.59981536865234 C 122.1050643920898 6.98870849609375 117.2966461181641 4.999992370605469 112.1766967773438 4.999992370605469 L 24.1392822265625 4.999992370605469 M 24.1392822265625 -1.52587890625e-05 L 112.1766967773438 -1.52587890625e-05 C 125.524299621582 -1.52587890625e-05 136.3159942626953 10.79168701171875 136.3159942626953 24.13927459716797 L 136.3159942626953 108.7687683105469 C 136.3159942626953 122.1163787841797 125.524299621582 132.9080505371094 112.1766967773438 132.9080505371094 L 24.1392822265625 132.9080505371094 C 10.79167175292969 132.9080505371094 0 122.1163787841797 0 108.7687683105469 L 0 24.13927459716797 C 0 10.79168701171875 10.79167175292969 -1.52587890625e-05 24.1392822265625 -1.52587890625e-05 Z" stroke="none" fill="#31a8ff"/>
      </g>
      <g id="Group_20" data-name="Group 20" transform="translate(30.671 33.795)">
        <g id="Path_43" data-name="Path 43" transform="translate(-54 -59.5)" fill="#31a8ff">
          <path d="M 117.1597442626953 118.3421936035156 C 114.612678527832 118.3421936035156 112.246337890625 118.1165390014648 109.9254913330078 117.6523513793945 L 109.8916320800781 117.6455764770508 L 109.8576049804688 117.6397552490234 C 108.3900985717773 117.3881759643555 106.9059143066406 116.9571151733398 105.5169525146484 116.3816757202148 L 105.5169525146484 110.5628051757812 C 107.0083694458008 111.2032699584961 108.5606918334961 111.7056198120117 110.2028274536133 112.0813064575195 C 112.5464248657227 112.6942138671875 115.0013275146484 113.0049133300781 117.5005264282227 113.0049133300781 C 119.9687423706055 113.0049133300781 121.8600158691406 112.6670455932617 123.2795333862305 111.9721527099609 C 125.0580520629883 111.1633148193359 126.2483444213867 109.3045196533203 126.2483444213867 107.32421875 C 126.2483444213867 105.7620391845703 125.47900390625 104.344856262207 123.9616928100586 103.1120147705078 C 122.8898162841797 102.2411041259766 121.0822677612305 101.3545150756836 117.7227401733398 100.0518569946289 L 117.6870651245117 100.0380172729492 L 117.650993347168 100.025276184082 C 114.9809494018555 99.08290863037109 112.5374526977539 97.84498596191406 110.1817779541016 96.24122619628906 C 108.751335144043 95.22181701660156 107.5306015014648 93.85903930664062 106.6476211547852 92.29634094238281 C 105.9374160766602 90.85588836669922 105.5855331420898 89.28292083740234 105.6295166015625 87.74339294433594 L 105.6305389404297 87.70770263671875 L 105.6305389404297 87.67198944091797 C 105.6305389404297 85.73161315917969 106.1572494506836 83.8575439453125 107.1961441040039 82.101318359375 C 108.3358993530273 80.28829956054688 110.0692291259766 78.77590179443359 112.0798263549805 77.84074401855469 L 112.1215057373047 77.82136535644531 L 112.1624450683594 77.80045318603516 C 114.4216918945312 76.64680480957031 117.338264465332 76.08600616455078 121.0788192749023 76.08600616455078 C 123.3135681152344 76.08600616455078 125.5613632202148 76.24913024902344 127.7597885131836 76.57083129882812 L 127.7755508422852 76.57314300537109 L 127.7913436889648 76.57524108886719 C 128.9350280761719 76.72775268554688 130.0739288330078 77.00058746337891 131.1880493164062 77.38839721679688 L 131.1880493164062 83.13273620605469 C 130.0091857910156 82.67819213867188 128.7694854736328 82.31842041015625 127.4458847045898 82.04524230957031 C 124.9994354248047 81.5169677734375 122.7684783935547 81.2576904296875 120.6276321411133 81.25294494628906 C 120.4623947143555 81.24568176269531 120.2936325073242 81.24200439453125 120.1250076293945 81.24200439453125 C 118.9830856323242 81.24200439453125 117.7828826904297 81.40415191650391 116.5570678710938 81.72399139404297 C 115.2286834716797 82.04037475585938 114.0912475585938 82.79521179199219 113.350944519043 83.85276794433594 L 113.3135528564453 83.90616607666016 L 113.2790069580078 83.96144104003906 C 112.7409439086914 84.82235717773438 112.4446182250977 85.83753204345703 112.4446182250977 86.81999206542969 C 112.4446182250977 87.83583831787109 112.8139190673828 88.86518859863281 113.512580871582 89.7967529296875 L 113.5442657470703 89.83900451660156 L 113.5777130126953 89.8798828125 C 114.2649307250977 90.71979522705078 115.1668701171875 91.44370269775391 116.2584915161133 92.031494140625 L 116.2728576660156 92.03921508789062 L 116.2873153686523 92.04676818847656 C 117.5762786865234 92.71926879882812 118.9986572265625 93.38057708740234 120.5149078369141 94.0123291015625 L 120.5992050170898 94.04745483398438 L 120.6858291625977 94.07633209228516 C 123.4999618530273 95.01439666748047 126.2602767944336 96.32302093505859 128.8898620605469 97.96562957763672 C 130.4233703613281 98.94338226318359 131.6377410888672 100.2112655639648 132.4998779296875 101.7346496582031 C 133.2198028564453 103.1943130493164 133.5622100830078 104.7454223632812 133.5177612304688 106.3460006713867 L 133.5160522460938 106.4072952270508 L 133.5173492431641 106.4685821533203 C 133.5626373291016 108.5968399047852 132.9306030273438 110.758674621582 131.7371673583984 112.5593109130859 C 130.4214324951172 114.4294509887695 128.6151123046875 115.8621215820312 126.5117950439453 116.7034301757812 L 126.4834823608398 116.7147521972656 L 126.455451965332 116.7267684936523 C 123.9543304443359 117.7986831665039 120.8268051147461 118.3421936035156 117.1597442626953 118.3421936035156 Z M 63.82524108886719 117.1494140625 L 56.50000381469727 117.1494140625 L 56.50000381469727 62.32594299316406 C 56.91073989868164 62.3172492980957 57.35519409179688 62.30347442626953 57.85729217529297 62.28164291381836 C 58.52748107910156 62.25373077392578 59.22191619873047 62.2399787902832 59.95711517333984 62.22544097900391 C 60.6628303527832 62.21147918701172 61.3925666809082 62.19704055786133 62.15790557861328 62.16869354248047 C 62.92635345458984 62.14022827148438 63.72917938232422 62.12640380859375 64.57913970947266 62.11176681518555 C 65.38513946533203 62.09788131713867 66.21858978271484 62.08353042602539 67.08741760253906 62.05550384521484 C 68.80786895751953 62.00001525878906 70.51985168457031 62.00001525878906 72.17546844482422 62.00001525878906 C 76.58416748046875 62.00001525878906 80.12429046630859 62.52389144897461 82.99811553955078 63.60159301757812 L 83.03443908691406 63.61521530151367 L 83.07118225097656 63.62770462036133 C 85.55841827392578 64.47335815429688 87.86093139648438 65.88057708740234 89.73088836669922 67.69773864746094 C 91.27913665771484 69.24945831298828 92.50733947753906 71.16830444335938 93.28422546386719 73.24922943115234 C 94.06160736083984 75.43089294433594 94.43954467773438 77.56636810302734 94.43954467773438 79.77700805664062 C 94.43954467773438 81.97874450683594 94.18440246582031 84.0008544921875 93.68121337890625 85.78717041015625 C 93.19441986083984 87.51532745361328 92.45964050292969 89.07469177246094 91.497314453125 90.42194366455078 C 89.53475189208984 93.16953277587891 86.77665710449219 95.25716400146484 83.52117919921875 96.45918273925781 C 80.22580718994141 97.67073822021484 76.43910217285156 98.235595703125 71.60748291015625 98.235595703125 C 70.40781402587891 98.235595703125 69.46024322509766 98.235595703125 69.01632690429688 98.19120788574219 C 68.32426452636719 98.12199401855469 67.48576354980469 98.12199401855469 66.32524108886719 98.12199401855469 L 63.82524108886719 98.12199401855469 L 63.82524108886719 100.6219940185547 L 63.82524108886719 117.1494140625 Z M 67.80172729492188 68.22255706787109 C 66.94626617431641 68.22255706787109 66.36528015136719 68.27989196777344 66.02854156494141 68.32798004150391 L 63.88204193115234 68.63458251953125 L 63.88204193115234 70.80286407470703 L 63.88204193115234 89.88711547851562 L 63.88204193115234 92.21495819091797 L 66.20395660400391 92.38076782226562 L 66.37395477294922 92.39295196533203 C 67.14591979980469 92.4483642578125 67.87506866455078 92.50070190429688 68.59717559814453 92.50070190429688 L 71.60748291015625 92.50070190429688 C 74.09604644775391 92.50070190429688 76.53768920898438 92.12062835693359 78.865234375 91.37103271484375 C 81.05770874023438 90.74365997314453 83.06512451171875 89.44733428955078 84.67353820800781 87.61961364746094 L 84.69254302978516 87.59803009033203 L 84.71102905273438 87.57600402832031 C 86.28342437744141 85.70410919189453 87.05113220214844 83.27716827392578 87.05747985839844 80.15707397460938 C 87.12153625488281 77.92628479003906 86.54944610595703 75.72479248046875 85.40187835693359 73.78825378417969 L 85.37375640869141 73.74080657958984 L 85.34358215332031 73.69462585449219 C 84.07415771484375 71.75314331054688 82.29238891601562 70.30260467529297 80.18941497802734 69.49822998046875 C 78.02698516845703 68.62561798095703 75.63064575195312 68.1832275390625 73.06621551513672 68.1832275390625 C 72.89349365234375 68.1832275390625 72.71771240234375 68.18526458740234 72.54323577880859 68.18927764892578 C 71.08342742919922 68.18928527832031 69.81404876708984 68.18964385986328 68.70645141601562 68.24311828613281 C 68.3973388671875 68.22946166992188 68.09358215332031 68.22255706787109 67.80172729492188 68.22255706787109 Z" stroke="none"/>
          <path d="M 117.1597442626953 115.8421936035156 C 120.4863128662109 115.8421936035156 123.2824935913086 115.3667068481445 125.4706344604492 114.4289169311523 L 125.5833435058594 114.3822250366211 C 127.2250137329102 113.7255706787109 128.6377716064453 112.6083374023438 129.6723175048828 111.1493530273438 C 130.5746917724609 109.7752380371094 131.0522308349609 108.1341934204102 131.0179290771484 106.5217819213867 L 131.0153045654297 106.3991775512695 L 131.0187072753906 106.276611328125 C 131.0511016845703 105.110481262207 130.8056335449219 103.9765548706055 130.2888641357422 102.904296875 C 129.6338500976562 101.770622253418 128.7145080566406 100.8206176757812 127.5547561645508 100.0793151855469 C 125.0955352783203 98.54420471191406 122.5186538696289 97.32254028320312 119.8952331542969 96.44804382324219 L 119.7219772338867 96.39028930664062 L 119.5533752441406 96.32004547119141 C 117.9711151123047 95.66078186035156 116.4831771850586 94.96876525878906 115.1308975219727 94.26322937011719 L 115.0732192993164 94.23265838623047 C 113.6922836303711 93.48907470703125 112.5381240844727 92.55721282958984 111.6428375244141 91.46299743652344 L 111.5759429931641 91.38124084472656 L 111.5125732421875 91.2967529296875 C 110.4868011474609 89.92902374267578 109.9446029663086 88.38099670410156 109.9446029663086 86.81999969482422 C 109.9446029663086 85.37519836425781 110.3759002685547 83.88944244384766 111.1590194702148 82.63644409179688 L 111.2281112670898 82.52588653564453 L 111.3028793334961 82.41907501220703 C 112.3897399902344 80.86647033691406 114.0378341674805 79.76072692871094 115.9508056640625 79.29850769042969 C 117.3740921020508 78.92919921875 118.7780456542969 78.74201202392578 120.1249618530273 78.74201202392578 C 120.3119659423828 78.74201202392578 120.4993362426758 78.74573516845703 120.6837463378906 78.75312042236328 C 122.9833068847656 78.76212310791016 125.3657073974609 79.03912353515625 127.9623565673828 79.59915924072266 C 128.2059020996094 79.6495361328125 128.4477691650391 79.70294189453125 128.6880340576172 79.75940704345703 L 128.6880340576172 79.27157592773438 C 128.2802734375 79.18083953857422 127.8707733154297 79.10797119140625 127.4609451293945 79.05332183837891 L 127.397834777832 79.04448699951172 C 125.3187713623047 78.74025726318359 123.192741394043 78.58599853515625 121.0788192749023 78.58599853515625 C 117.7892379760742 78.58599853515625 115.1718673706055 79.07080841064453 113.2993850708008 80.02696228027344 L 113.2175140380859 80.06877899169922 L 113.1341247558594 80.10756683349609 C 111.5658874511719 80.83696746826172 110.2171859741211 82.00608825683594 109.3306045532227 83.4034423828125 C 108.5343017578125 84.76039123535156 108.1305389404297 86.19629669189453 108.1305389404297 87.6719970703125 L 108.1284942626953 87.81479644775391 C 108.0967407226562 88.9263916015625 108.3492660522461 90.06966400146484 108.859489440918 91.12843322753906 C 109.5562057495117 92.34111785888672 110.5053253173828 93.39723968505859 111.6120529174805 94.19057464599609 C 113.7798004150391 95.66358184814453 116.0280075073242 96.80132293701172 118.4830322265625 97.66779327392578 L 118.6265563964844 97.72093200683594 C 122.29443359375 99.14316558837891 124.2322692871094 100.1106719970703 125.5381698608398 101.1717224121094 C 128.19140625 103.3274917602539 128.7483367919922 105.7073669433594 128.7483367919922 107.3242111206055 C 128.7483367919922 110.3055419921875 127.0249099731445 113.0022201538086 124.3456268310547 114.2336654663086 C 122.5809860229492 115.0889358520508 120.3400726318359 115.5049209594727 117.5005264282227 115.5049209594727 C 114.8014068603516 115.5049209594727 112.1464920043945 115.1701354980469 109.6079711914062 114.5097885131836 C 109.0691223144531 114.3858413696289 108.5390701293945 114.2493362426758 108.016960144043 114.0999298095703 L 108.016960144043 114.6301040649414 C 108.763069152832 114.8621520996094 109.5240631103516 115.0461044311523 110.2800521850586 115.1757049560547 L 110.4157867431641 115.2009201049805 C 112.5732955932617 115.6324310302734 114.7792663574219 115.8421936035156 117.1597442626953 115.8421936035156 M 61.32523345947266 114.6494140625 L 61.32523345947266 95.62199401855469 L 66.32523345947266 95.62199401855469 C 67.55811309814453 95.62199401855469 68.44889831542969 95.62199401855469 69.26520538330078 95.70361328125 C 69.58500671386719 95.735595703125 70.61317443847656 95.735595703125 71.60748291015625 95.735595703125 C 76.13216400146484 95.735595703125 79.64303588867188 95.22024536132812 82.65526580810547 94.11393737792969 C 85.43875885009766 93.08619689941406 87.79281616210938 91.30706024169922 89.46297454833984 88.96884155273438 C 90.26815795898438 87.84159851074219 90.86083221435547 86.57913208007812 91.27486419677734 85.10932159423828 C 91.71591186523438 83.54360961914062 91.93954467773438 81.74954986572266 91.93954467773438 79.77701568603516 C 91.93954467773438 77.86330413818359 91.61117553710938 76.00811767578125 90.93579864501953 74.10675811767578 C 90.28485870361328 72.37056732177734 89.26154327392578 70.770751953125 87.97421264648438 69.47667694091797 C 86.37126159667969 67.92324066162109 84.39823150634766 66.71944427490234 82.26641845703125 65.99462890625 L 82.12031555175781 65.94241333007812 C 79.53208160400391 64.97182464599609 76.27909851074219 64.50001525878906 72.17546844482422 64.50001525878906 C 70.46437072753906 64.50001525878906 68.84819030761719 64.50001525878906 67.16803741455078 64.55421447753906 C 66.28041839599609 64.58283996582031 65.43741607666016 64.59736633300781 64.6221923828125 64.61139678955078 C 63.78494262695312 64.62582397460938 62.99414443969727 64.63944244384766 62.25041961669922 64.66698455810547 C 61.46357345581055 64.69613647460938 60.72288131713867 64.71078491210938 60.00657272338867 64.72495269775391 C 59.66215133666992 64.73176574707031 59.32686233520508 64.7384033203125 59.00000381469727 64.74641418457031 L 59.00000381469727 114.6494140625 L 61.32523345947266 114.6494140625 M 67.80174255371094 65.72254943847656 C 68.09330749511719 65.72254943847656 68.39458465576172 65.72864532470703 68.70045471191406 65.74068450927734 C 69.83061218261719 65.68995666503906 71.08331298828125 65.68928527832031 72.51529693603516 65.68927764892578 C 72.69927215576172 65.68526458740234 72.88429260253906 65.6832275390625 73.06622314453125 65.6832275390625 C 75.94422912597656 65.6832275390625 78.64765930175781 66.18370056152344 81.10292816162109 67.1710205078125 C 83.69171142578125 68.16614532470703 85.88074493408203 69.94784545898438 87.43601989746094 72.32655334472656 L 87.49637603759766 72.41886138916016 L 87.55260467529297 72.51374816894531 C 88.93596649169922 74.84816741943359 89.62841033935547 77.50241088867188 89.55736541748047 80.19518280029297 C 89.54373931884766 83.86003112792969 88.55744934082031 86.88377380371094 86.62532806396484 89.18395233154297 L 86.55030822753906 89.27120971679688 C 84.63471984863281 91.44796752929688 82.23090362548828 92.99950408935547 79.59323120117188 93.76300048828125 C 77.02927398681641 94.58429718017578 74.34296417236328 95.00070190429688 71.60748291015625 95.00070190429688 L 68.59717559814453 95.00070190429688 C 67.78548431396484 95.00070190429688 66.9769287109375 94.94265747070312 66.19500732421875 94.88653564453125 L 61.38203430175781 94.54279327392578 L 61.38203430175781 66.46646118164062 L 65.67485046386719 65.85313415527344 C 66.27280426025391 65.76770782470703 67.00826263427734 65.72254943847656 67.80174255371094 65.72254943847656 M 117.1597442626953 120.8421936035156 C 114.547004699707 120.8421936035156 111.991081237793 120.6150131225586 109.435173034668 120.1038131713867 C 107.4472351074219 119.7630004882812 105.4592819213867 119.1382446289062 103.6417388916016 118.2862701416016 C 103.2441558837891 118.0590896606445 102.9601593017578 117.661491394043 103.016960144043 117.2071075439453 L 103.016960144043 107.3241958618164 C 103.016960144043 107.15380859375 103.0737609863281 106.926628112793 103.244140625 106.8130111694336 C 103.4145355224609 106.6994247436523 103.5849151611328 106.756217956543 103.7553253173828 106.8698120117188 C 105.9704666137695 108.1761779785156 108.2991714477539 109.0849533081055 110.7983093261719 109.6529235839844 C 112.9566497802734 110.2209167480469 115.2285919189453 110.5049209594727 117.5005264282227 110.5049209594727 C 119.6588516235352 110.5049209594727 121.1924057006836 110.2209167480469 122.2147750854492 109.7097320556641 C 123.1235580444336 109.3121490478516 123.7483444213867 108.3465805053711 123.7483444213867 107.3242111206055 C 123.7483444213867 106.5290298461914 123.2939453125 105.790641784668 122.3851852416992 105.0522766113281 C 121.4764022827148 104.3138885498047 119.6020660400391 103.4619216918945 116.8189239501953 102.3827514648438 C 113.9222183227539 101.3603820800781 111.2526931762695 99.99724578857422 108.7535858154297 98.29327392578125 C 106.9928207397461 97.04371643066406 105.5160827636719 95.39656829833984 104.436897277832 93.46540832519531 C 103.5281295776367 91.64785766601562 103.0737457275391 89.65991973876953 103.1305389404297 87.6719970703125 C 103.1305389404297 85.22966003417969 103.8121109008789 82.90091705322266 105.0616836547852 80.79940032958984 C 106.4816513061523 78.52745819091797 108.5831756591797 76.70990753173828 111.0254974365234 75.57395172119141 C 113.6950225830078 74.21078491210938 117.046142578125 73.58599853515625 121.0788192749023 73.58599853515625 C 123.4075241088867 73.58599853515625 125.7930679321289 73.75640869140625 128.1217956542969 74.09718322753906 C 129.8257293701172 74.32437896728516 131.4728851318359 74.77877807617188 133.0064392089844 75.403564453125 C 133.2336578369141 75.46035003662109 133.4608306884766 75.68755340576172 133.5744323730469 75.91473388671875 C 133.6312408447266 76.14193725585938 133.6880340576172 76.36913299560547 133.6880340576172 76.59633636474609 L 133.6880340576172 85.85443115234375 C 133.6880340576172 86.08162689208984 133.5744323730469 86.30884552001953 133.4040374755859 86.42242431640625 C 132.8928070068359 86.53603363037109 132.6088562011719 86.53601837158203 132.3816680908203 86.42242431640625 L 132.3816986083984 86.42240905761719 C 130.6777648925781 85.51365661621094 128.8601989746094 84.88887023925781 126.9290466308594 84.49127197265625 C 124.8275299072266 84.03687286376953 122.7259902954102 83.75289154052734 120.5676651000977 83.75289154052734 C 119.4316940307617 83.69605255126953 118.2389068603516 83.86647796630859 117.1597595214844 84.15047454833984 C 116.4213562011719 84.32086181640625 115.7966079711914 84.71846008300781 115.3990020751953 85.28644561767578 C 115.1150054931641 85.7408447265625 114.9446029663086 86.30883026123047 114.9446029663086 86.81999969482422 C 114.9446029663086 87.33118438720703 115.1718063354492 87.84238433837891 115.5125885009766 88.29676818847656 C 116.0237731933594 88.92153167724609 116.7053604125977 89.43271636962891 117.4437255859375 89.83030700683594 C 118.7500991821289 90.51188659667969 120.1132659912109 91.13667297363281 121.4764175415039 91.70464324951172 C 124.5435256958008 92.72704315185547 127.4970474243164 94.14696502685547 130.2233428955078 95.85093688964844 C 132.0977020263672 97.04368591308594 133.6312561035156 98.63404083251953 134.7104034423828 100.5651779174805 C 135.6192016601562 102.3827362060547 136.0735778808594 104.3706741333008 136.0167846679688 106.415412902832 C 136.0735931396484 109.0849380493164 135.2783966064453 111.7544555664062 133.8016510009766 113.969596862793 C 132.2113037109375 116.2415390014648 129.9961547851562 118.0022888183594 127.4402465820312 119.0246276855469 C 124.6571273803711 120.217414855957 121.2492370605469 120.8421936035156 117.1597442626953 120.8421936035156 Z M 65.70046234130859 119.6494140625 L 54.68158721923828 119.6494140625 C 54.22720336914062 119.6494140625 54.00000381469727 119.4222259521484 54.00000381469727 118.9110565185547 L 54.00000381469727 60.46557998657227 C 54.00000381469727 60.06799697875977 54.17040252685547 59.84079742431641 54.56798934936523 59.84079742431641 C 55.5335578918457 59.84079742431641 56.44234085083008 59.84079742431641 57.74869537353516 59.78401184082031 C 59.11185073852539 59.72721099853516 60.53181838989258 59.72721099853516 62.06535720825195 59.67041397094727 C 63.59892654418945 59.61361312866211 65.24606323242188 59.61361312866211 67.00682067871094 59.55681228637695 C 68.76755523681641 59.5000114440918 70.47152709960938 59.5000114440918 72.17546844482422 59.5000114440918 C 76.83292388916016 59.5000114440918 80.69522094726562 60.06799697875977 83.87593078613281 61.26076507568359 C 86.71585083007812 62.22633361816406 89.32855987548828 63.81668853759766 91.48689270019531 65.91822814941406 C 93.30445098876953 67.73576354980469 94.72438812255859 69.95090484619141 95.63317108154297 72.39324188232422 C 96.48514556884766 74.77874755859375 96.93954467773438 77.22109222412109 96.93954467773438 79.77701568603516 C 96.93954467773438 84.66167449951172 95.80357360839844 88.69435119628906 93.53163146972656 91.87504577636719 C 91.25971221923828 95.05574798583984 88.07900238037109 97.44129180908203 84.38711547851562 98.80442810058594 C 80.52481842041016 100.2244110107422 76.26494598388672 100.735595703125 71.60748291015625 100.735595703125 C 70.24430847167969 100.735595703125 69.33555603027344 100.735595703125 68.76755523681641 100.6787796020508 C 68.19956970214844 100.6219940185547 67.40440368652344 100.6219940185547 66.32523345947266 100.6219940185547 L 66.32523345947266 118.8542404174805 C 66.38203430175781 119.2518463134766 66.09805297851562 119.592643737793 65.70046234130859 119.6494140625 Z M 67.80175018310547 70.72254943847656 C 67.14303588867188 70.72254943847656 66.66318511962891 70.76271057128906 66.38203430175781 70.80287170410156 L 66.38203430175781 89.88712310791016 C 67.17722320556641 89.94390106201172 67.91560363769531 90.00070190429688 68.59717559814453 90.00070190429688 L 71.60748291015625 90.00070190429688 C 73.8226318359375 90.00070190429688 76.03775787353516 89.65991973876953 78.13929748535156 88.97833251953125 C 79.95684814453125 88.46714782714844 81.54718780517578 87.38797760009766 82.79677581787109 85.96802520751953 C 83.98952484130859 84.54805755615234 84.55751037597656 82.61692047119141 84.55751037597656 80.1177978515625 C 84.61429595947266 78.3570556640625 84.159912109375 76.59630584716797 83.25114440917969 75.06275177001953 C 82.28559112548828 73.58598327636719 80.92240142822266 72.45002746582031 79.2752685546875 71.82524108886719 C 77.17372894287109 70.97325897216797 74.90183258056641 70.63250732421875 72.57306671142578 70.68927001953125 C 71.0963134765625 70.68927001953125 69.78992462158203 70.68927001953125 68.71075439453125 70.74607086181641 C 68.37809753417969 70.72943878173828 68.07453155517578 70.72254943847656 67.80175018310547 70.72254943847656 Z" stroke="none" fill="#31a8ff"/>
        </g>
      </g>
    </g>
    <g id="figma-1" transform="translate(1639.55 761.883)">
      <path id="Path_46" data-name="Path 46" d="M22.12,244.239a22.128,22.128,0,0,0,22.12-22.12V200H22.12a22.12,22.12,0,1,0,0,44.239Z" transform="translate(0 -111.521)" fill="#0acf83" stroke="#707070" stroke-width="1"/>
      <path id="Path_47" data-name="Path 47" d="M0,122.12A22.128,22.128,0,0,1,22.12,100h22.12v44.239H22.12A22.128,22.128,0,0,1,0,122.12Z" transform="translate(0 -55.761)" fill="#a259ff" stroke="#707070" stroke-width="1"/>
      <path id="Path_48" data-name="Path 48" d="M0,22.12A22.128,22.128,0,0,1,22.12,0h22.12V44.239H22.12A22.128,22.128,0,0,1,0,22.12Z" transform="translate(0)" fill="#f24e1e" stroke="#707070" stroke-width="1"/>
      <path id="Path_49" data-name="Path 49" d="M100,0h22.12a22.12,22.12,0,1,1,0,44.239H100Z" transform="translate(-55.761)" fill="#ff7262" stroke="#707070" stroke-width="1"/>
      <path id="Path_50" data-name="Path 50" d="M144.239,122.12A22.12,22.12,0,1,1,122.12,100,22.128,22.128,0,0,1,144.239,122.12Z" transform="translate(-55.761 -55.761)" fill="#1abcfe" stroke="#707070" stroke-width="1"/>
    </g>
    <g id="react-2" transform="translate(1088.925 518.445)">
      <path id="Path_51" data-name="Path 51" d="M321.5,142.937c0-9.659-12.1-18.812-30.641-24.489,4.28-18.9,2.378-33.939-6-38.754A13.03,13.03,0,0,0,278.2,78.03v6.627a6.882,6.882,0,0,1,3.388.773c4.042,2.318,5.8,11.145,4.428,22.5-.327,2.794-.862,5.736-1.516,8.737a144.023,144.023,0,0,0-18.872-3.239,144.976,144.976,0,0,0-12.363-14.86c9.688-9,18.783-13.938,24.964-13.938V78c-8.173,0-18.872,5.825-29.69,15.93-10.818-10.045-21.517-15.811-29.69-15.811v6.627c6.152,0,15.276,4.9,24.964,13.849a140.366,140.366,0,0,0-12.274,14.83,138.78,138.78,0,0,0-18.9,3.269c-.684-2.972-1.189-5.855-1.545-8.619-1.4-11.353.327-20.179,4.339-22.527a6.614,6.614,0,0,1,3.418-.773V78.149a13.251,13.251,0,0,0-6.717,1.664c-8.351,4.815-10.223,19.823-5.914,38.665-18.485,5.706-30.522,14.83-30.522,24.459,0,9.659,12.1,18.812,30.641,24.489-4.28,18.9-2.378,33.939,6,38.754a13.064,13.064,0,0,0,6.687,1.664c8.173,0,18.872-5.825,29.69-15.93,10.818,10.045,21.517,15.811,29.69,15.811a13.251,13.251,0,0,0,6.717-1.664c8.351-4.815,10.223-19.823,5.914-38.665,18.426-5.676,30.462-14.83,30.462-24.459Zm-38.695-19.823c-1.1,3.834-2.467,7.786-4.012,11.739-1.218-2.378-2.5-4.755-3.893-7.133-1.367-2.378-2.823-4.7-4.28-6.954C274.844,121.39,278.915,122.163,282.808,123.114ZM269.2,154.765c-2.318,4.012-4.7,7.816-7.162,11.353-4.428.386-8.916.594-13.433.594-4.488,0-8.975-.208-13.374-.565q-3.7-5.3-7.192-11.293-3.388-5.84-6.182-11.828c1.843-3.982,3.923-7.965,6.152-11.858,2.318-4.012,4.7-7.816,7.162-11.353,4.428-.386,8.916-.594,13.433-.594,4.488,0,8.975.208,13.374.565q3.7,5.3,7.192,11.293,3.388,5.84,6.182,11.828c-1.872,3.982-3.923,7.965-6.152,11.858Zm9.6-3.863c1.6,3.982,2.972,7.965,4.1,11.828-3.893.951-7.994,1.753-12.244,2.378,1.456-2.288,2.912-4.636,4.28-7.043,1.367-2.378,2.645-4.785,3.863-7.162Zm-30.135,31.711a122.522,122.522,0,0,1-8.262-9.51c2.675.119,5.409.208,8.173.208,2.794,0,5.558-.059,8.262-.208A116.007,116.007,0,0,1,248.661,182.612Zm-22.111-17.5c-4.22-.624-8.292-1.4-12.185-2.348,1.1-3.834,2.467-7.786,4.012-11.739,1.219,2.378,2.5,4.755,3.893,7.133S225.094,162.849,226.55,165.107Zm21.963-61.846a122.526,122.526,0,0,1,8.262,9.51c-2.675-.119-5.409-.208-8.173-.208-2.794,0-5.558.059-8.262.208A116.007,116.007,0,0,1,248.512,103.261Zm-21.992,17.5c-1.456,2.288-2.912,4.636-4.28,7.043-1.367,2.378-2.645,4.755-3.864,7.133-1.6-3.982-2.972-7.965-4.1-11.828,3.893-.921,7.994-1.724,12.244-2.348Zm-26.9,37.209C189.1,153.487,182.3,147.6,182.3,142.937s6.806-10.58,17.326-15.038c2.556-1.1,5.349-2.08,8.232-3a142.739,142.739,0,0,0,6.687,18.1,140.72,140.72,0,0,0-6.6,18.01C205,160.085,202.21,159.074,199.624,157.975Zm15.989,42.469c-4.042-2.318-5.8-11.145-4.428-22.5.327-2.794.862-5.736,1.516-8.737a144.027,144.027,0,0,0,18.872,3.239,144.974,144.974,0,0,0,12.363,14.86c-9.689,9-18.783,13.938-24.964,13.938a7.092,7.092,0,0,1-3.358-.8ZM286.107,177.8c1.4,11.353-.327,20.179-4.339,22.527a6.614,6.614,0,0,1-3.418.773c-6.152,0-15.276-4.9-24.964-13.849a140.371,140.371,0,0,0,12.274-14.83,138.784,138.784,0,0,0,18.9-3.269A83.207,83.207,0,0,1,286.107,177.8Zm11.442-19.823c-2.556,1.1-5.349,2.08-8.232,3a142.738,142.738,0,0,0-6.687-18.1,140.73,140.73,0,0,0,6.6-18.01c2.942.921,5.736,1.932,8.351,3.031,10.521,4.488,17.326,10.372,17.326,15.038C314.876,147.6,308.07,153.517,297.549,157.975Z" transform="translate(-175.7 -78)" fill="#61dafb"/>
      <ellipse id="Ellipse_1" data-name="Ellipse 1" cx="13.582" cy="13.582" rx="13.582" ry="13.582" transform="translate(59.29 51.355)" fill="#61dafb"/>
    </g>
    <g id="tailwindcss-icon" transform="translate(1333.771 529.53)">
      <path id="Path_52" data-name="Path 52" d="M89.729,0Q53.838,0,44.865,35.892,58.324,17.946,76.27,22.432c6.826,1.707,11.7,6.659,17.105,12.14,8.8,8.93,18.979,19.265,41.219,19.265q35.891,0,44.865-35.892Q166,35.892,148.054,31.405c-6.826-1.707-11.7-6.659-17.105-12.14C122.151,10.335,111.969,0,89.729,0ZM44.865,53.838Q8.973,53.838,0,89.729,13.459,71.783,31.405,76.27c6.826,1.706,11.705,6.659,17.105,12.14,8.8,8.93,18.979,19.265,41.219,19.265q35.891,0,44.865-35.892Q121.135,89.73,103.189,85.243c-6.826-1.706-11.7-6.659-17.105-12.14C77.286,64.173,67.1,53.838,44.865,53.838Z" fill="url(#linear-gradient)"/>
    </g>
    <path id="bootstrap-5-1" d="M30.965,0c-8.506,0-14.8,7.445-14.519,15.52.271,7.757-.081,17.8-2.61,26C11.3,49.733,7.008,54.939,0,55.607v7.545c7.008.67,11.3,5.874,13.835,14.091,2.529,8.193,2.881,18.24,2.61,26-.282,8.073,6.012,15.52,14.52,15.52h87.162c8.506,0,14.8-7.445,14.518-15.52-.27-7.757.081-17.8,2.61-26,2.538-8.217,6.817-13.423,13.826-14.091V55.607c-7.008-.67-11.287-5.874-13.826-14.091-2.529-8.192-2.881-18.24-2.61-26C132.927,7.446,126.634,0,118.128,0H30.963Zm70.107,73.1c0,11.118-8.293,17.861-22.055,17.861H55.59a2.527,2.527,0,0,1-2.527-2.527V30.322a2.527,2.527,0,0,1,2.527-2.527H78.883c11.475,0,19.007,6.216,19.007,15.76A14.112,14.112,0,0,1,86.369,57.3v.349c8.786.964,14.7,7.049,14.7,15.455ZM76.462,35.8H63.1V54.673H74.355c8.7,0,13.493-3.5,13.493-9.762C87.847,39.044,83.724,35.8,76.462,35.8ZM63.1,62.159V82.952H76.954c9.056,0,13.852-3.634,13.852-10.462S85.875,62.158,76.372,62.158H63.1Z" transform="translate(1612.273 523.988)" fill="#7952b3" fill-rule="evenodd"/>
  </g>
</svg>
